<?xml version="1.0" encoding="utf-8"?>
<!-- Generator: Adobe Illustrator 27.1.1, SVG Export Plug-In . SVG Version: 6.00 Build 0)  -->
<svg version="1.1" id="Layer_1" xmlns="http://www.w3.org/2000/svg" xmlns:xlink="http://www.w3.org/1999/xlink" x="0px" y="0px"
	 viewBox="0 0 1366 768" style="enable-background:new 0 0 1366 768;" xml:space="preserve">
<style type="text/css">
	.st0{fill:#26060C;}
</style>
<g>
	<path class="st0" d="M363,283.6c1.3,11.2,2,22.9,2.3,35s0.2,26.6-0.2,43.5c-0.4,16.9-0.6,28.4-0.6,34.4c0,1.1-0.1,4.6-0.3,10.4
		c-0.2,5.8-0.3,10.6-0.3,14.2c-0.1,5.8-0.1,10.3,0,13.7c0.1,2,0.2,3.5,0.4,4.6c0,0.3,0.1,0.6,0.2,0.8c0.1,0,0.4,0.1,1,0.2
		c0.5,0.1,1,0.3,1.5,0.4l0.6,0.2c2.5,0.6,6.3,1,11.2,1.3c0.6,0.1,1.4,0.2,2.3,0.2h0.8h1c5.2,0.3,8.1,0.4,8.6,0.4
		c4.8,0.3,8.2,0.8,10.1,1.5c1.4,0.4,2.4,1.3,3.1,2.6c0.6,1.3,0.8,2.7,0.4,4.2s-1.2,2.6-2.4,3.3c-1.2,0.7-2.4,0.8-3.7,0.4
		c-1.3-0.4-3.9-0.8-8-1.1c-1.1,0-2.9-0.1-5.3-0.2s-3.9-0.2-4.6-0.2c-0.5,0-1.8,0.1-3.8,0.2c-2.8,0.3-5,0.4-6.5,0.4
		c-6.5,0.3-11.2-0.8-14.1-3.2c-1.1-1.1-2.1-2.7-2.9-4.8c-0.4-1.3-0.7-2.9-0.9-4.8c-0.5-3.1-0.9-7-1.1-11.8
		c-0.3-3.6-0.4-10.2-0.6-19.8c-0.1-8.6,0.3-31.1,1.3-67.7c0.1-3.2,0.1-12.1,0-26.7c-0.1-11.5,0.1-20.7,0.8-27.6c0-0.3,0.1-0.6,0.2-1
		l-0.2-1.9c-0.1-1.4,0.2-2.7,1-3.9s1.9-1.9,3.2-2.1c1.3-0.2,2.5,0.1,3.6,1.1C362.1,280.9,362.8,282.1,363,283.6z"/>
	<path class="st0" d="M428,373.7c0.1,2-0.1,8.3-0.6,18.9c-0.4,8.7-0.4,15.4,0,20.2c0.9,11.6,4.6,18.9,11.2,21.9
		c0.6,0.1,1.3,0.2,2.1,0.2c7.2,0,14.1-2.5,20.5-7.6s11.4-11.5,15-19.4c2-4.5,4.3-11.3,6.7-20.4v-0.4c0-0.1,0-0.5,0.1-0.9
		c0.1-0.5,0.2-1.1,0.3-1.8c0.1-1.4,0.4-2.5,1-3.4c0.3-0.6,0.6-1.1,1.1-1.5v-0.6c0.1-0.6,0.3-1.1,0.6-1.5c0.4-1.1,1-2,1.9-2.5
		c1.3-0.8,2.7-1.1,4.2-0.6c1,0.4,1.8,1.1,2.5,1.9c0.9,1.4,1.4,3.5,1.5,6.3c0.1,1.7,0.1,4,0,6.9v4v0.2c0,4.3-0.4,10.4-1.1,18.1
		c-0.6,6.2-1.3,12.5-2.1,18.9c-0.4,4.3-0.6,7.2-0.8,8.4c-0.1,0.8-0.3,1.6-0.6,2.3c-0.1,0.6-0.2,1-0.2,1.3c-0.3,1.5-0.9,2.8-2,3.7
		c-1.1,0.9-2.3,1.3-3.6,1.1c-1.3-0.2-2.4-0.9-3.2-2.1c-0.8-1.2-1.2-2.5-1-3.9c0.1-0.7,0.2-1.6,0.4-2.7c0.1-1.1,0.3-2.6,0.6-4.5
		c0.3-1.9,0.4-3.5,0.6-4.7l0.4-3.4c-6.4,10.4-14.2,17.1-23.4,20.2c-2.3,0.7-5.5,1.1-9.6,1.3c-4.1,0.1-7.3-0.1-9.6-0.8
		c-1.7-0.3-3.2-0.7-4.6-1.3c-5.7-1.1-10.2-4.2-13.5-9.3c-3.1-4.9-5-11.7-5.7-20.4c-0.5-5.8-0.5-13.2,0.2-22.3
		c0.6-10.7,1-16.6,1-17.9c0-0.6,0.1-1,0.2-1.5c0-1.5,0.4-2.8,1.3-3.9c0.9-1,2-1.6,3.3-1.8c1.3-0.1,2.5,0.3,3.5,1.4
		C427.3,370.8,427.9,372.1,428,373.7z"/>
	<path class="st0" d="M525.8,283.6c1.3,11.2,2,22.9,2.3,35s0.2,26.6-0.2,43.5s-0.6,28.4-0.6,34.4c0,1.1-0.1,4.6-0.3,10.4
		s-0.3,10.6-0.3,14.2c-0.1,5.8-0.1,10.3,0,13.7c0.1,2,0.2,3.5,0.4,4.6c0,0.3,0.1,0.6,0.2,0.8c0.1,0,0.4,0.1,1,0.2
		c0.5,0.1,1,0.3,1.5,0.4l0.6,0.2c2.5,0.6,6.3,1,11.2,1.3c0.6,0.1,1.4,0.2,2.3,0.2h0.8h1c5.2,0.3,8.1,0.4,8.6,0.4
		c4.8,0.3,8.2,0.8,10.1,1.5c1.4,0.4,2.4,1.3,3.1,2.6c0.6,1.3,0.8,2.7,0.4,4.2c-0.4,1.5-1.2,2.6-2.4,3.3c-1.2,0.7-2.4,0.8-3.7,0.4
		s-3.9-0.8-8-1.1c-1.1,0-2.9-0.1-5.3-0.2c-2.4-0.1-3.9-0.2-4.6-0.2c-0.5,0-1.8,0.1-3.8,0.2c-2.8,0.3-5,0.4-6.5,0.4
		c-6.5,0.3-11.2-0.8-14.1-3.2c-1.1-1.1-2.1-2.7-2.9-4.8c-0.4-1.3-0.7-2.9-0.9-4.8c-0.5-3.1-0.9-7-1.1-11.8
		c-0.3-3.6-0.4-10.2-0.6-19.8c-0.1-8.6,0.3-31.1,1.3-67.7c0.1-3.2,0.1-12.1,0-26.7c-0.1-11.5,0.1-20.7,0.8-27.6c0-0.3,0.1-0.6,0.2-1
		l-0.2-1.9c-0.1-1.4,0.2-2.7,1-3.9c0.8-1.2,1.9-1.9,3.2-2.1s2.5,0.1,3.6,1.1C524.9,280.9,525.5,282.1,525.8,283.6z"/>
	<path class="st0" d="M597.7,283.6c1.3,11.2,2,22.9,2.3,35s0.2,26.6-0.2,43.5s-0.6,28.4-0.6,34.4c0,1.1-0.1,4.6-0.3,10.4
		s-0.3,10.6-0.3,14.2c-0.1,5.8-0.1,10.3,0,13.7c0.1,2,0.2,3.5,0.4,4.6c0,0.3,0.1,0.6,0.2,0.8c0.1,0,0.4,0.1,1,0.2
		c0.5,0.1,1,0.3,1.5,0.4l0.6,0.2c2.5,0.6,6.3,1,11.2,1.3c0.6,0.1,1.4,0.2,2.3,0.2h0.8h1c5.2,0.3,8.1,0.4,8.6,0.4
		c4.8,0.3,8.2,0.8,10.1,1.5c1.4,0.4,2.4,1.3,3.1,2.6c0.6,1.3,0.8,2.7,0.4,4.2c-0.4,1.5-1.2,2.6-2.4,3.3c-1.2,0.7-2.4,0.8-3.7,0.4
		s-3.9-0.8-8-1.1c-1.1,0-2.9-0.1-5.3-0.2c-2.4-0.1-3.9-0.2-4.6-0.2c-0.5,0-1.8,0.1-3.8,0.2c-2.8,0.3-5,0.4-6.5,0.4
		c-6.5,0.3-11.2-0.8-14.1-3.2c-1.1-1.1-2.1-2.7-2.9-4.8c-0.4-1.3-0.7-2.9-0.9-4.8c-0.5-3.1-0.9-7-1.1-11.8
		c-0.3-3.6-0.4-10.2-0.6-19.8c-0.1-8.6,0.3-31.1,1.3-67.7c0.1-3.2,0.1-12.1,0-26.7c-0.1-11.5,0.1-20.7,0.8-27.6c0-0.3,0.1-0.6,0.2-1
		l-0.2-1.9c-0.1-1.4,0.2-2.7,1-3.9c0.8-1.2,1.9-1.9,3.2-2.1s2.5,0.1,3.6,1.1C596.7,280.9,597.4,282.1,597.7,283.6z"/>
	<path class="st0" d="M685.7,300.9l7.8-5.7c5.8-4.1,10.8-6.8,14.9-8.2c6.7-2.5,11.5-1.5,14.3,2.9c1.5,2.5,2,5.5,1.3,8.8
		c-0.4,2.3-1.3,4.8-2.9,7.6c-2.2,4.3-5.7,9.5-10.7,15.6c-3.3,4.2-7.4,9-12.4,14.5l-8.2,9c-2.7,3.1-5.7,7.2-9.1,12.2l-9,13.5
		c-0.9,1.1-2,1.8-3.3,2s-2.6-0.1-3.7-0.9c-1.1-1-1.8-2.3-1.9-4c-0.3,0.3-0.5,0.5-0.8,0.6c-1.3,0.6-2.5,0.6-3.8,0.1s-2.2-1.4-2.9-2.8
		l-4.8-10.9c-2.3-5.1-4-9-5.1-11.9s-2.5-6.8-4.1-11.8s-2.6-9.4-3.1-13.2c-0.4-3.8-0.5-8.2-0.2-13.2s1.2-9.8,2.6-14.6
		c1.1-3.4,3.6-7.8,7.4-13.2c3.8-5.5,7.8-10.2,12-14.3c5.5-5.2,10.5-7.8,15.1-8c6.6-0.3,11.2,3.9,13.7,12.4
		c2.4,8.3,1.6,18.7-2.5,31.3L685.7,300.9z M648.4,301.7c3.4-8.4,7.1-15.8,10.9-22.3c-5,6.3-7.9,11.3-9,14.9
		C649.4,296.7,648.7,299.2,648.4,301.7z M662.8,294.1c-3.7,7.4-7.4,16.6-11.1,27.4c-0.4,1.3-1.1,2.2-2.1,2.7
		c0.5,2.1,1.2,4.3,2.1,6.7C657.1,312.6,660.8,300.3,662.8,294.1z M659.6,395.6c-0.1-1.7-0.3-3.1-0.4-4.2c-0.1-1.5,0.2-2.9,1.1-4.1
		c0.9-1.2,2-1.9,3.3-2s2.5,0.3,3.6,1.3s1.7,2.2,1.8,3.6s0.3,2.9,0.4,4.6v0.4c0.6,9.4,1,22.4,1.1,39.1v0.6v6.1v1.1v0.2
		c-0.3-0.1-0.6-0.2-1-0.2c-2-0.1-3.7-0.4-5-0.8s-2.3-1.1-2.8-1.9s-0.8-1.5-0.9-2c-0.1-0.5-0.2-1.2-0.2-2
		C660,414.3,659.6,401,659.6,395.6z M663.4,356.2c-0.4,0.1-0.7,0.3-1,0.4l2.1,4.8c0.1,0.4,0.3,0.9,0.4,1.5l1.5-2.3
		c-0.3-0.1-0.4-0.2-0.6-0.2C664.5,359.4,663.7,358,663.4,356.2z M669.7,305.3c1-0.1,2,0.1,3.1,0.6c0.3,0.1,0.4,0.3,0.6,0.4
		c0.4-1,1-2.8,1.9-5.4s1.5-4.5,1.9-5.8c3.3-10.4,4.1-18.5,2.3-24.4c-0.1-0.6-0.3-1.1-0.4-1.5c-0.3,0.7-0.7,1.3-1.3,1.9
		c-3.4,3.8-6.7,8.2-9.7,13.2c1.1-0.3,2.2-0.2,3.2,0.2c1.3,0.4,2.2,1.3,2.8,2.7c0.6,1.4,0.6,2.8,0.1,4.2L669.7,305.3z M678.1,334.3
		c0-1.1,0.2-2.1,0.6-2.9l9.1-18.5l-7.8,6.7c-0.5,1.8-0.8,3.6-1,5.3c-0.3,2.1-1.2,3.6-2.9,4.4l-2.5,5.5
		C675.1,333.8,676.6,333.6,678.1,334.3z"/>
	<path class="st0" d="M768,318.6c10.4-2.1,19.4-0.3,27.1,5.5c9.4,7,14.7,18.2,15.8,33.7c1,13.3-1.1,24.1-6.5,32.2
		c-4.2,6.3-11.1,12.3-20.6,17.9c-9.4,5.5-21.3,9.3-35.6,11.6c-0.8,13.6-1.3,24.8-1.5,33.4c0,1.5-0.5,2.8-1.5,3.8s-2.2,1.5-3.6,1.5
		s-2.5-0.6-3.4-1.7s-1.3-2.5-1.3-4c0.1-4.3,1.1-23.9,3-58.7c0.4-7.9,0.6-13.3,0.8-16.2c-0.6,0-1.3-0.2-1.9-0.6
		c-1.3-0.6-2.1-1.6-2.6-3.1c-0.4-1.5-0.4-2.8,0.3-4.1c1.3-3.2,2.9-6.6,4.8-10.1c0.3-8.6,0.3-16.6,0-24.2c0-1.5,0.4-2.9,1.3-4
		c0.9-1.1,2-1.7,3.4-1.7h0.6c2.9-3.5,7.7-6.5,14.3-9l1.5-0.4C763.9,318,765.8,317.4,768,318.6z M792.4,349.3
		c-3.2,5.5-8.2,13.3-15.1,23.4l-8.4,12.8c0.1,1.5-0.3,2.9-1.3,4c-3.9,5.1-7.4,10.7-10.3,17c4.4-1.1,8.5-2.4,12.2-3.8
		c-0.8-0.1-1.5-0.5-2.3-1.1c-1-1-1.6-2.2-1.8-3.7s0.1-2.8,0.9-4.1l7.2-9.7c3.2-4.3,5.6-7.8,7.3-10.3s3.6-5.6,5.7-9.4
		c2.1-3.7,3.8-7.3,5-10.8c0.5-1.4,1.4-2.4,2.6-2.9c1.2-0.6,2.5-0.6,3.9,0c0.9,0.4,1.6,1,2.1,1.9c-1.7-9-5.3-15.5-10.9-19.6
		c-1.4-1.1-3-2-4.8-2.7c0.4,1.7,0.1,3.2-0.9,4.6c-3.4,4.9-7.9,12.8-13.5,23.8c-6.6,12.9-11.1,21.4-13.5,25.5c-0.8,1.3-1.7,2.1-3,2.4
		c-1.2,0.4-2.4,0.2-3.5-0.5l-0.4,8.2l-0.2,5.3c1.4-3.1,2.9-5.9,4.4-8.4c0.1-0.6,0.3-1,0.6-1.5c3.4-5.6,8.4-13.4,15.1-23.3
		c6.6-10.1,11.4-17.7,14.5-22.9c0.8-1.3,1.8-2.1,3.1-2.4s2.6-0.1,3.7,0.7c1.1,0.8,1.9,2,2.2,3.5C793.4,346.6,793.2,348,792.4,349.3z
		 M775.7,328.7c-2.2,0-4.3,0.3-6.5,0.8c-2.4,5.3-6.2,12.5-11.4,21.5l-6.7,11.8l-0.4,11.4c1.7-2.9,5.2-9.8,10.7-20.6
		C766.8,342.7,771.6,334.4,775.7,328.7z M754.1,336.9c-0.6,0.7-1.2,1.5-1.7,2.5c-0.4,0.6-0.8,1.1-1.1,1.5v1.1L754.1,336.9z
		 M799.7,376.6l-9.9,14.3c2.8-2.4,5-4.8,6.7-7.4C797.8,381.5,798.9,379.2,799.7,376.6z M798,364.6c1.1,0,2.1,0.4,2.9,1.1l0.4,0.4
		c0.1-2.2,0.1-4.8-0.2-7.6v-1.1c-0.1,0.1-0.2,0.3-0.2,0.4C800.1,360.1,799.1,362.4,798,364.6z"/>
	<path class="st0" d="M867.3,366.9c7.9-6.2,15.9-9.3,24-9.3c6.5,0.1,11.2,2.6,14.1,7.4c3.2,5.2,3.6,12.3,1.1,21.3
		c-2.7,10.1-8.7,21-18.1,32.8c-2,2.7-5.9,7.3-11.6,13.9l-10.7,13c-0.9,1.3-2,2-3.3,2.1s-2.5-0.3-3.5-1.3c-0.6-0.4-1.1-1-1.3-1.7
		c-2.3,1.5-4.3,1.3-6.1-0.8c-4.4-4.8-8.1-8.9-11.1-12.3c-2.9-3.4-6.3-8-10.2-13.6s-7-10.9-9.2-15.8c-2.3-4.9-4.2-10.5-5.7-16.7
		s-2.2-12.4-1.9-18.4c0.5-10.1,3.4-17.3,8.6-21.5c3.1-2.5,6.5-4,10.3-4.3s7.4,0,10.7,1.2c3.3,1.3,6.5,3,9.5,5.3
		C859.8,353.3,864.7,359.5,867.3,366.9z M824.3,378.5c2.7-7.7,6-16.3,10.1-25.9c-2.4,0.1-4.5,0.9-6.3,2.3c-2.7,2.1-4.1,6.5-4.4,13
		C823.6,371.5,823.8,375,824.3,378.5z M831.7,400.2c1.4-3.9,4-10.4,7.8-19.6c3.9-9.5,6.9-16.9,8.8-22.1c0-0.1,0.1-0.3,0.2-0.4
		l-1.1-0.9c-1-0.8-2.1-1.5-3.2-2.1c-6.4,15.4-11.3,28.8-14.9,40C830,396.8,830.8,398.5,831.7,400.2z M840.7,414.7
		c3.6-10.1,8.8-23.7,15.8-40.8c0.5-1,1.1-1.7,1.9-2.3c-0.6-1.7-1.5-3.4-2.5-5.1c-1.7,4.8-4.1,11-7.2,18.7c-5.2,12.6-8.2,20-9,22.1
		c-0.4,1.3-1.1,2.2-2.3,2.7L840.7,414.7z M863.9,382.3c-6.5,15.8-11.5,28.8-15.1,38.9c-0.3,1-0.8,1.7-1.5,2.3l1.1,1.3
		c2-5.9,5-13.4,9-22.5l9-20.4c-0.6,0.3-1.3,0.4-2.1,0.4L863.9,382.3L863.9,382.3z M876.5,383.6c-1.1,2.8-4.5,10.6-10.1,23.3
		c-4.1,9.4-7.1,17.1-9,23.1c-0.4,1.1-1.1,2-2.1,2.7l3.4,4c0.4,0.3,0.6,0.6,0.8,1c2.2-2.8,5-6.2,8.4-10.1c-1.4,0.7-2.8,0.6-4.2-0.2
		c-1.3-0.6-2.1-1.5-2.6-2.9c-0.4-1.4-0.4-2.8,0.3-4.2c2-4.8,6-12.9,11.8-24.4c5.2-10.1,8.9-18,11.1-23.8c0.5-1.4,1.4-2.4,2.7-2.9
		c-5.1,1.1-9.8,3.4-14.1,6.7c0.4,0.1,0.7,0.3,0.9,0.4c1.3,0.7,2.2,1.7,2.7,3.2S877,382.3,876.5,383.6z M873.1,418.9l-2.7,5.7
		l4.2-4.6c-0.3-0.1-0.4-0.3-0.6-0.4C873.6,419.4,873.3,419.2,873.1,418.9z M890.2,384.2l1.1,0.4c1.1,0.8,1.9,2,2.3,3.5
		c0.4,1.5,0.3,2.8-0.4,4.1l-6.7,12.4c5.2-7.6,8.7-14.7,10.5-21.3c1.5-5.9,1.6-10,0.2-12.2c-1-1.7-3-2.5-5.9-2.5
		c-0.6,0-1.3,0.1-2.1,0.2c0.5,0,1,0.1,1.5,0.4c1.3,0.6,2.2,1.5,2.7,2.9s0.5,2.8,0,4.2L890.2,384.2z"/>
	<path class="st0" d="M952.2,318.6c10.4-2.1,19.4-0.3,27.1,5.5c9.4,7,14.7,18.2,15.8,33.7c1,13.3-1.1,24.1-6.5,32.2
		c-4.2,6.3-11.1,12.3-20.6,17.9c-9.4,5.5-21.3,9.3-35.6,11.6c-0.8,13.6-1.3,24.8-1.5,33.4c0,1.5-0.5,2.8-1.5,3.8s-2.2,1.5-3.6,1.5
		c-1.4,0-2.5-0.6-3.4-1.7s-1.3-2.5-1.3-4c0.1-4.3,1.1-23.9,3-58.7c0.4-7.9,0.6-13.3,0.8-16.2c-0.6,0-1.3-0.2-1.9-0.6
		c-1.3-0.6-2.1-1.6-2.6-3.1c-0.4-1.5-0.4-2.8,0.3-4.1c1.3-3.2,2.9-6.6,4.8-10.1c0.3-8.6,0.3-16.6,0-24.2c0-1.5,0.4-2.9,1.3-4
		c0.9-1.1,2-1.7,3.4-1.7h0.6c2.9-3.5,7.7-6.5,14.3-9l1.5-0.4C948,318,949.9,317.4,952.2,318.6z M976.6,349.3
		c-3.2,5.5-8.2,13.3-15.1,23.4l-8.4,12.8c0.1,1.5-0.3,2.9-1.3,4c-3.9,5.1-7.4,10.7-10.3,17c4.4-1.1,8.5-2.4,12.2-3.8
		c-0.8-0.1-1.5-0.5-2.3-1.1c-1-1-1.6-2.2-1.8-3.7s0.1-2.8,0.9-4.1l7.2-9.7c3.2-4.3,5.6-7.8,7.3-10.3s3.6-5.6,5.7-9.4
		c2.1-3.7,3.8-7.3,5-10.8c0.5-1.4,1.4-2.4,2.6-2.9c1.2-0.6,2.5-0.6,3.9,0c0.9,0.4,1.6,1,2.1,1.9c-1.7-9-5.3-15.5-10.9-19.6
		c-1.4-1.1-3-2-4.8-2.7c0.4,1.7,0.1,3.2-0.9,4.6c-3.4,4.9-7.9,12.8-13.5,23.8c-6.6,12.9-11.1,21.4-13.5,25.5c-0.8,1.3-1.7,2.1-3,2.4
		c-1.2,0.4-2.4,0.2-3.5-0.5l-0.4,8.2l-0.2,5.3c1.4-3.1,2.9-5.9,4.4-8.4c0.1-0.6,0.3-1,0.6-1.5c3.4-5.6,8.4-13.4,15.1-23.3
		c6.6-10.1,11.4-17.7,14.5-22.9c0.8-1.3,1.8-2.1,3.1-2.4s2.6-0.1,3.7,0.7c1.1,0.8,1.9,2,2.2,3.5C977.5,346.6,977.3,348,976.6,349.3z
		 M959.8,328.7c-2.2,0-4.3,0.3-6.5,0.8c-2.4,5.3-6.2,12.5-11.4,21.5l-6.7,11.8l-0.4,11.4c1.7-2.9,5.2-9.8,10.7-20.6
		C951,342.7,955.7,334.4,959.8,328.7z M938.2,336.9c-0.6,0.7-1.2,1.5-1.7,2.5c-0.4,0.6-0.8,1.1-1.1,1.5v1.1L938.2,336.9z
		 M983.8,376.6l-9.9,14.3c2.8-2.4,5-4.8,6.7-7.4C982,381.5,983,379.2,983.8,376.6z M982.1,364.6c1.1,0,2.1,0.4,2.9,1.1l0.4,0.4
		c0.1-2.2,0.1-4.8-0.2-7.6v-1.1c-0.1,0.1-0.2,0.3-0.2,0.4C984.2,360.1,983.2,362.4,982.1,364.6z"/>
</g>
</svg>
